<svg xmlns="http://www.w3.org/2000/svg" viewBox="0 0 425 140" width="425" height="140">
  <title>NIVAR</title>
  <defs>
    <linearGradient id="incandescente" gradientUnits="userSpaceOnUse" x1="22" y1="0" x2="400" y2="0">
      <stop offset="0%" stop-color="#7A1F0D"></stop>
      <stop offset="50%" stop-color="#C17D1F"></stop>
      <stop offset="100%" stop-color="#F5C63C"></stop>
    </linearGradient>
  </defs>

  <g fill="none" stroke="url(#incandescente)" stroke-linecap="butt" stroke-linejoin="miter">

    
    <path id="letra-n" d="M22 112 C22 80 22 50 22 18 C54 40 60 92 108 112 C108 80 108 50 108 18" stroke-width="16"></path>

    
    <g stroke-width="13">
      <path id="letra-i" d="M140 32 L140 112"></path>
      <path id="letra-v" d="M170 32 L200 112 L230 32"></path>
      <path id="letra-a" d="M254 112 L284 32 L314 112"></path>
      <path id="letra-r-haste" d="M342 112 L342 32"></path>
      <path id="letra-r-bojo" d="M342 32 C378 32 394 44 386 56 C378 68 362 64 342 64"></path>
      <path id="letra-r-perna" d="M370 62 C382 80 390 96 398 112"></path>
    </g>

  </g>
</svg>